<?xml version="1.0" encoding="UTF-8"?>
<svg xmlns="http://www.w3.org/2000/svg" xmlns:xlink="http://www.w3.org/1999/xlink" width="491.835907pt" height="433.100647pt" viewBox="0 0 491.835907 433.100647" version="1.1">
<g id="surface1">
<path style=" stroke:none;fill-rule:nonzero;fill:rgb(0%,0%,0%);fill-opacity:1;" d="M 205.40625 374.980469 C 200.960938 376.132812 188.605469 380.582031 178.226562 384.855469 C 153.195312 395.246094 135.570312 396.71875 118.113281 389.96875 C 111.359375 387.332031 124.707031 397.542969 133.761719 401.828125 C 141.5 405.621094 144.960938 406.105469 158.46875 406.105469 C 176.585938 406.105469 182.347656 404.125 202.269531 390.789062 C 216.765625 380.90625 224.007812 377.609375 230.933594 377.609375 C 238.175781 377.609375 237.023438 379.921875 226.980469 385.1875 C 214.132812 391.9375 191.40625 410.386719 191.40625 414 C 191.40625 415.648438 192.726562 417.632812 194.203125 418.621094 C 196.515625 419.773438 199.476562 417.957031 209.523438 408.414062 C 223.851562 394.574219 241.148438 382.554688 246.582031 382.554688 C 251.855469 382.554688 269.148438 394.414062 282.984375 407.59375 C 289.40625 413.859375 295.335938 418.789062 296.15625 418.789062 C 296.976562 418.789062 298.957031 417.308594 300.597656 415.5 C 303.234375 412.371094 303.070312 412.046875 298.792969 407.925781 C 292.371094 401.835938 272.609375 388 264.371094 383.882812 C 258.441406 380.914062 257.617188 380.089844 259.917969 378.777344 C 264.863281 375.972656 273.925781 379.105469 289.074219 388.660156 C 297.46875 393.925781 306.039062 399.207031 308.34375 400.183594 C 326.957031 408.914062 351.15625 406.777344 369.113281 394.917969 C 377.511719 389.320312 377.84375 386.683594 369.941406 389.980469 C 357.753906 395.082031 335.015625 392.941406 317.402344 385.039062 C 293.191406 374.167969 280.832031 371.527344 263.214844 373.507812 C 249.046875 374.988281 245.59375 374.988281 227.644531 373.839844 C 218.414062 373.171875 210.839844 373.496094 205.40625 374.980469 Z M 125.527344 327.550781 C 125.527344 328.203125 128.652344 334.796875 132.441406 342.046875 C 139.855469 356.539062 148.25 365.269531 158.128906 368.730469 C 165.542969 371.359375 164.554688 371.359375 148.582031 369.386719 C 141.828125 368.398438 128.160156 366.917969 118.441406 366.09375 C 105.269531 364.941406 98.1875 363.457031 91.429688 360.328125 C 86.328125 358.023438 81.882812 356.375 81.550781 356.707031 C 79.742188 358.675781 96.867188 372.355469 107.410156 377.457031 C 118.941406 382.898438 120.914062 383.386719 135.40625 383.230469 C 147.101562 383.230469 155.664062 382.070312 169.171875 378.605469 C 179.214844 375.96875 187.945312 373.34375 188.605469 372.679688 C 189.429688 372.023438 186.792969 370.703125 182.839844 369.71875 C 173.289062 367.242188 165.386719 361.480469 145.457031 343.035156 C 129.152344 327.875 125.527344 324.917969 125.527344 327.550781 Z M 347.042969 341.710938 C 337.324219 351.09375 328.265625 359.328125 326.777344 360.160156 C 325.136719 360.976562 323.167969 362.621094 322.003906 363.613281 C 321.019531 364.605469 315.914062 366.910156 310.800781 368.386719 C 305.703125 370.039062 301.914062 371.6875 302.246094 372.011719 C 302.574219 372.339844 306.207031 373.332031 310.148438 374.15625 C 314.109375 374.976562 323.988281 377.28125 332.054688 379.09375 C 358.574219 385.1875 375.535156 382.886719 393.980469 370.691406 C 403.699219 364.273438 413.246094 355.214844 411.773438 353.734375 C 411.269531 353.238281 407.660156 354.71875 403.699219 356.863281 C 393.816406 362.296875 386.574219 363.949219 364.339844 365.925781 C 353.964844 366.910156 342.433594 368.0625 338.8125 368.71875 L 332.226562 369.707031 L 339.960938 364.765625 C 348.363281 359.324219 356.765625 349.113281 360.542969 339.726562 C 361.699219 336.601562 363.671875 332.320312 364.667969 330.347656 C 368.617188 322.28125 363.835938 325.402344 347.042969 341.710938 Z M 95.054688 291.152344 C 97.527344 312.894531 102.304688 328.871094 109.21875 338.585938 C 112.84375 343.6875 116.632812 347.96875 117.621094 347.96875 C 118.609375 347.96875 119.097656 348.300781 118.609375 348.796875 C 118.113281 349.296875 112.679688 346.324219 106.421875 342.210938 C 100.164062 337.925781 87.652344 331.003906 78.425781 326.5625 C 66.40625 320.796875 59.488281 316.183594 53.0625 309.765625 C 46.144531 302.851562 44.660156 301.859375 45.648438 305.152344 C 48.121094 313.546875 61.953125 331.996094 70.851562 338.910156 C 79.246094 345.664062 88.96875 351.101562 96.707031 353.742188 C 101.972656 355.546875 132.941406 360.980469 133.59375 360.164062 C 133.925781 359.828125 132.445312 356.703125 130.300781 353.40625 C 125.855469 346.488281 121.902344 337.59375 113.832031 316.683594 C 108.730469 303.179688 103.785156 293.949219 97.199219 285.386719 L 93.902344 281.269531 Z M 390.359375 289.835938 C 386.238281 295.921875 381.300781 305.808594 379.324219 311.742188 C 377.1875 317.667969 374.882812 323.925781 374.214844 325.738281 C 373.394531 327.550781 371.589844 332.65625 369.949219 336.9375 C 368.460938 341.378906 365.003906 347.96875 362.367188 351.59375 C 359.730469 355.21875 357.925781 358.511719 358.242188 359.007812 C 360.222656 360.980469 395.464844 352.257812 404.691406 347.480469 C 415.078125 342.214844 428.902344 330.851562 435.65625 321.621094 C 441.261719 314.050781 446.695312 304.003906 446.695312 300.878906 C 446.695312 300.378906 442.40625 303.839844 437.132812 308.617188 C 431.375 313.878906 421.496094 320.46875 412.761719 324.753906 C 404.6875 328.878906 394.148438 334.46875 389.546875 337.601562 C 384.761719 340.574219 380.8125 342.703125 380.8125 342.378906 C 380.8125 341.882812 383.285156 336.617188 386.40625 330.355469 C 389.871094 323.449219 392.828125 314.382812 393.984375 306.796875 C 394.96875 300.050781 396.621094 291.15625 397.441406 287.207031 C 398.425781 283.25 398.765625 279.796875 398.425781 279.292969 C 397.933594 278.960938 394.308594 283.742188 390.359375 289.835938 Z M 412.425781 240.425781 C 410.449219 243.886719 407.808594 262.164062 405.511719 286.375 C 403.859375 304.488281 403.039062 308.9375 400.40625 315.363281 C 399.421875 317.828125 398.925781 320.464844 399.089844 321.449219 C 400.234375 324.421875 429.0625 304.484375 440.425781 293.125 C 454.582031 278.792969 461.5 265.125 462.648438 249.640625 L 463.480469 238.441406 L 459.203125 247.332031 C 456.730469 252.109375 449.816406 261.332031 443.71875 267.925781 C 437.449219 274.347656 429.878906 282.90625 426.757812 287.023438 C 423.78125 291.140625 420.65625 295.097656 419.832031 296.082031 C 419.175781 296.90625 417.535156 299.210938 416.046875 301.023438 C 413.898438 303.988281 413.898438 303.65625 416.046875 298.550781 C 421.8125 284.058594 422.136719 277.960938 418.679688 257.707031 C 416.703125 247.164062 414.894531 238.273438 414.558594 237.941406 C 414.234375 237.621094 413.246094 238.777344 412.425781 240.425781 Z M 73.8125 257.386719 C 70.683594 277.808594 71.175781 289.5 75.628906 300.207031 C 78.257812 306.628906 77.105469 305.808594 69.859375 295.59375 C 67.0625 291.636719 58.660156 281.753906 51.085938 273.683594 C 43.507812 265.453125 35.4375 255.242188 32.964844 251.121094 C 28.519531 243.554688 28.355469 243.386719 28.355469 248.328125 C 28.355469 261.5 35.105469 278.304688 45.480469 290.324219 C 54.042969 300.53125 91.269531 326.714844 93.742188 324.421875 C 94.234375 323.921875 93.414062 321.125 91.925781 318.324219 C 89.621094 313.546875 88.304688 305.644531 84.351562 272.210938 C 82.207031 254.59375 79.242188 239.441406 77.925781 238.453125 C 77.273438 238.121094 75.457031 246.679688 73.8125 257.386719 Z M 30.660156 184.09375 C 28.1875 189.53125 29.339844 219.339844 32.308594 229.550781 C 35.105469 238.773438 38.402344 244.207031 53.886719 263.816406 L 62.121094 274.183594 L 63.269531 264.472656 C 63.769531 259.203125 66.894531 245.207031 70.023438 233.34375 C 73.324219 221.644531 76.285156 206.496094 76.941406 199.742188 L 77.929688 187.390625 L 72.828125 196.453125 C 59.160156 220.992188 56.191406 228.734375 56.03125 239.929688 C 55.867188 245.859375 55.203125 250.308594 54.382812 249.8125 C 53.726562 249.316406 53.0625 247.5 53.0625 245.691406 C 53.0625 242.078125 46.808594 221.320312 44.828125 218.679688 C 42.523438 215.386719 34.621094 193.8125 33.464844 187.390625 C 32.308594 181.796875 31.980469 181.296875 30.660156 184.09375 Z M 458.207031 179.980469 C 458.207031 185.410156 454.585938 197.273438 447.667969 214.566406 C 444.527344 222.304688 441.082031 231.859375 439.933594 235.8125 L 437.789062 243.054688 L 435.8125 232.355469 C 434.664062 226.425781 432.519531 219.011719 431.039062 216.050781 C 426.421875 207.316406 415.066406 188.214844 413.90625 187.390625 C 410.609375 185.410156 419.011719 227.078125 424.769531 241.734375 C 426.09375 245.363281 427.746094 253.925781 428.398438 260.679688 L 429.390625 273.03125 L 441.898438 256.066406 C 458.539062 233.5 462.164062 223.128906 462.164062 199.738281 C 462.164062 189.695312 461.34375 180.964844 460.183594 179.152344 C 458.371094 176.03125 458.371094 176.03125 458.207031 179.980469 Z M 45.648438 133.039062 C 40.214844 144.738281 37.578125 158.738281 38.894531 170.097656 C 39.554688 175.035156 42.847656 187.558594 46.308594 197.933594 L 52.730469 216.871094 L 56.523438 208.636719 C 58.496094 204.191406 63.769531 195.464844 68.21875 189.367188 C 78.425781 175.203125 86.996094 159.394531 88.472656 152.152344 L 89.625 146.550781 L 79.578125 155.28125 C 67.882812 165.65625 60.308594 175.699219 56.191406 186.40625 L 53.394531 193.980469 L 53.230469 175.863281 C 53.0625 165.820312 52.40625 153.296875 51.585938 147.699219 C 50.757812 142.265625 50.59375 134.6875 51.421875 130.90625 C 53.0625 121.351562 50.753906 122.335938 45.648438 133.039062 Z M 437.789062 151.820312 C 437.121094 168.121094 437.121094 183.441406 437.625 186.074219 L 438.445312 190.6875 L 436.632812 186.574219 C 435.476562 184.269531 433.339844 179.488281 431.535156 175.699219 C 429.71875 171.578125 422.800781 163.839844 413.25 155.28125 C 405.023438 147.699219 399.09375 142.597656 400.242188 143.75 C 401.234375 145.070312 402.21875 148.035156 402.21875 150.335938 C 402.21875 155.113281 411.9375 172.078125 422.964844 186.734375 C 426.925781 191.839844 432.359375 200.410156 434.988281 205.84375 C 439.773438 215.394531 439.773438 215.394531 440.917969 210.453125 C 441.585938 207.652344 443.546875 201.066406 445.195312 195.628906 C 451.125 177.839844 451.945312 172.738281 451.289062 157.75 C 450.792969 147.039062 449.484375 140.617188 446.847656 134.359375 C 439.773438 118.222656 439.105469 119.539062 437.789062 151.820312 Z M 70.851562 100.597656 C 59.816406 112.457031 58.164062 119.375 59.316406 152.476562 L 59.648438 165.324219 L 71.507812 154.125 C 96.871094 130.082031 101.804688 124.476562 105.429688 116.738281 C 107.578125 112.457031 108.730469 108.335938 108.230469 107.84375 C 107.734375 107.179688 104.9375 109.15625 101.96875 112.125 C 99.003906 114.929688 92.582031 120.691406 87.476562 124.808594 C 82.207031 128.761719 75.285156 135.347656 71.992188 139.136719 C 68.53125 143.085938 66.394531 144.738281 67.050781 142.921875 C 67.710938 141.113281 69.6875 133.367188 71.496094 125.628906 C 73.308594 117.890625 76.601562 107.351562 78.742188 102.082031 C 83.691406 90.058594 81.0625 89.5625 70.851562 100.597656 Z M 406.007812 90.710938 C 409.464844 94.664062 417.367188 117.226562 421.160156 134.359375 L 422.144531 139.136719 L 417.867188 134.851562 C 415.554688 132.542969 409.300781 127.441406 404.1875 123.652344 C 399.089844 119.863281 391.507812 113.765625 387.558594 110.152344 C 381.132812 104.058594 380.476562 103.726562 381.628906 107.511719 C 384.425781 118.378906 390.183594 126.289062 402.054688 136.003906 C 408.96875 141.601562 418.023438 149.671875 422.148438 153.957031 C 426.425781 158.402344 430.386719 161.863281 430.878906 161.863281 C 431.375 161.863281 431.863281 152.640625 431.863281 141.269531 C 431.863281 123.152344 431.371094 119.695312 427.902344 111.792969 C 423.636719 102.078125 413.089844 90.542969 407.324219 88.902344 C 403.859375 88.082031 403.699219 88.246094 406.007812 90.710938 Z M 111.527344 75.5625 C 101.648438 80.664062 91.761719 89.730469 87.648438 97.632812 C 84.679688 103.558594 79.082031 120.851562 79.90625 121.679688 C 81.226562 122.996094 103.292969 101.085938 109.0625 92.855469 C 112.683594 87.75 117.789062 80.828125 120.753906 77.371094 C 125.039062 72.269531 125.371094 71.277344 122.730469 71.277344 C 121.078125 71.277344 116.136719 73.257812 111.527344 75.5625 Z M 364.996094 71.613281 C 367.308594 74.578125 373.0625 81.820312 377.339844 87.753906 C 386.734375 100.273438 406.664062 119.542969 408.632812 118.226562 C 411.117188 116.90625 401.5625 94.34375 395.785156 87.425781 C 389.207031 79.523438 380.640625 73.757812 369.285156 69.472656 L 360.378906 66.175781 Z M 364.996094 71.613281 "/>
<path style=" stroke:none;fill-rule:nonzero;fill:rgb(100%,100%,100%);fill-opacity:1;" d="M 21.382812 52.054688 C 17.941406 58.988281 13.109375 72.363281 14.382812 90.75 C 15.65625 109.140625 23.035156 132.535156 28.960938 153.066406 C 34.890625 173.59375 39.367188 191.257812 43.890625 203.273438 C 48.417969 215.292969 52.988281 221.667969 60.84375 227.804688 C 68.699219 233.9375 79.839844 239.832031 87.046875 246.835938 C 94.253906 253.835938 97.53125 261.9375 101.910156 268.28125 C 106.289062 274.621094 111.769531 279.195312 117.988281 282.867188 C 124.207031 286.539062 131.160156 289.3125 135.960938 290.734375 C 140.761719 292.160156 143.410156 292.238281 146.996094 294.863281 C 150.578125 297.492188 155.105469 302.671875 159.683594 306.253906 C 164.261719 309.835938 168.9375 311.847656 173.054688 312.703125 C 177.171875 313.5625 180.757812 313.28125 184.535156 312.550781 C 188.316406 311.824219 192.289062 310.648438 197.035156 307.980469 C 201.78125 305.308594 207.292969 301.148438 211.5625 297.40625 C 215.828125 293.664062 218.84375 290.34375 221.078125 285.429688 C 223.3125 280.515625 224.761719 274.007812 224.558594 265.964844 C 224.351562 257.921875 222.496094 248.34375 218.636719 241.632812 C 214.777344 234.917969 208.914062 231.070312 200.5 226.320312 C 192.089844 221.566406 181.09375 215.894531 166.785156 206.53125 C 152.476562 197.167969 134.839844 184.105469 116.433594 166.648438 C 98.027344 149.191406 78.855469 127.339844 65.53125 108.929688 C 52.207031 90.519531 44.734375 75.550781 39.609375 65.324219 C 34.480469 55.09375 31.695312 49.609375 29.28125 47.113281 C 26.867188 44.621094 24.820312 45.117188 21.382812 52.054688 Z M 470.453125 52.054688 C 473.894531 58.988281 478.726562 72.363281 477.453125 90.75 C 476.179688 109.140625 468.800781 132.535156 462.875 153.066406 C 456.945312 173.59375 452.46875 191.257812 447.945312 203.273438 C 443.417969 215.292969 438.847656 221.667969 430.992188 227.804688 C 423.136719 233.9375 411.996094 239.832031 404.789062 246.835938 C 397.582031 253.835938 394.304688 261.9375 389.925781 268.28125 C 385.546875 274.621094 380.066406 279.195312 373.847656 282.867188 C 367.628906 286.539062 360.675781 289.3125 355.875 290.734375 C 351.074219 292.160156 348.425781 292.238281 344.839844 294.863281 C 341.257812 297.492188 336.730469 302.671875 332.152344 306.253906 C 327.574219 309.835938 322.898438 311.847656 318.78125 312.703125 C 314.664062 313.5625 311.078125 313.28125 307.300781 312.550781 C 303.519531 311.824219 299.546875 310.648438 294.800781 307.980469 C 290.054688 305.308594 284.542969 301.148438 280.273438 297.40625 C 276.007812 293.664062 272.988281 290.34375 270.757812 285.429688 C 268.523438 280.515625 267.074219 274.007812 267.277344 265.964844 C 267.484375 257.921875 269.339844 248.34375 273.199219 241.632812 C 277.058594 234.917969 282.921875 231.070312 291.335938 226.320312 C 299.746094 221.566406 310.742188 215.894531 325.050781 206.53125 C 339.359375 197.167969 356.996094 184.105469 375.402344 166.648438 C 393.808594 149.191406 412.980469 127.339844 426.304688 108.929688 C 439.628906 90.519531 447.101562 75.550781 452.226562 65.324219 C 457.355469 55.09375 460.140625 49.609375 462.554688 47.113281 C 464.96875 44.621094 467.015625 45.117188 470.453125 52.054688 Z M 470.453125 52.054688 "/>
<path style=" stroke:none;fill-rule:nonzero;fill:rgb(0%,0%,0%);fill-opacity:1;" d="M 267.214844 276.253906 C 269.128906 270.632812 270.214844 264.121094 270.214844 257.222656 C 270.214844 247.453125 268.042969 241.765625 264.402344 238.511719 C 265.167969 236.722656 265.234375 234.679688 264.660156 232.761719 C 263.574219 229.121094 262.296875 223.949219 263.382812 221.203125 C 265.234375 221.332031 267.085938 221.648438 268.683594 222.351562 C 269.128906 223.375 269.320312 224.460938 269.128906 225.417969 L 268.808594 227.398438 L 270.277344 226.058594 C 270.535156 225.800781 276.855469 220.117188 275.707031 214.433594 C 274.621094 209.132812 267.214844 207.984375 263.574219 205.683594 C 263.574219 204.917969 264.722656 201.277344 258.207031 199.488281 C 253.546875 198.210938 239.625 198.085938 233.75 207.410156 C 228 216.542969 227.746094 230.589844 227.746094 231.164062 C 227.746094 232.890625 228.640625 234.933594 229.980469 236.914062 C 225.0625 239.851562 221.996094 245.664062 221.996094 257.285156 C 221.996094 264.121094 223.082031 270.507812 224.933594 276.0625 C 231.320312 295.15625 226.722656 316.296875 213.566406 331.367188 C 211.652344 333.539062 209.671875 335.710938 207.691406 337.820312 L 221.804688 344.714844 C 221.804688 344.714844 239.242188 321.46875 245.945312 298.925781 C 252.652344 321.46875 270.085938 344.714844 270.085938 344.714844 L 284.199219 337.820312 C 282.605469 336.160156 281.007812 334.433594 279.476562 332.710938 C 265.679688 317.320312 260.636719 295.734375 267.214844 276.253906 Z M 469.152344 66.460938 L 465.703125 55.539062 L 462.703125 66.585938 C 462.636719 66.90625 453.632812 97.753906 406.5 150.1875 C 363.519531 197.957031 293.910156 233.59375 280.367188 240.296875 C 278.644531 241.128906 277.816406 243.109375 278.390625 244.960938 C 278.898438 246.621094 280.367188 247.707031 282.09375 247.707031 C 282.285156 247.707031 282.476562 247.707031 282.667969 247.644531 C 359.5625 236.785156 434.472656 178.667969 456.824219 142.648438 C 480.710938 104.011719 469.664062 67.929688 469.152344 66.460938 Z M 292.246094 251.539062 C 290.332031 251.921875 288.992188 253.710938 289.183594 255.691406 C 289.375 257.667969 290.96875 259.203125 292.949219 259.203125 C 294.355469 259.203125 295.761719 259.265625 297.164062 259.265625 C 371.824219 259.265625 431.40625 219.605469 437.984375 211.304688 C 444.628906 202.9375 449.226562 179.371094 449.738281 176.691406 L 452.101562 164.171875 L 443.863281 173.816406 C 397.242188 228.292969 309.425781 248.089844 292.246094 251.539062 Z M 286.5 264.3125 C 284.585938 264.121094 282.859375 265.332031 282.414062 267.25 C 281.964844 269.164062 282.921875 271.082031 284.710938 271.785156 C 306.296875 280.597656 325.074219 284.941406 340.914062 284.941406 C 352.023438 284.941406 361.730469 282.769531 369.90625 278.488281 C 387.46875 269.230469 391.238281 253.390625 391.363281 252.6875 L 393.089844 245.023438 L 386.382812 248.984375 C 352.34375 269.039062 301.316406 265.78125 286.5 264.3125 Z M 277.878906 274.785156 C 276.21875 274.019531 274.300781 274.53125 273.214844 276 C 272.128906 277.46875 272.195312 279.449219 273.34375 280.851562 C 278.898438 287.429688 298.058594 308.441406 315.8125 308.441406 C 316.261719 308.441406 316.707031 308.441406 317.15625 308.378906 C 324.242188 307.929688 330.183594 304.164062 334.78125 297.074219 L 337.972656 292.15625 L 332.097656 291.835938 C 331.84375 291.835938 312.171875 290.433594 277.878906 274.785156 Z M 209.160156 247.644531 C 209.351562 247.644531 209.542969 247.707031 209.734375 247.707031 C 211.394531 247.707031 212.929688 246.621094 213.4375 244.960938 C 214.015625 243.109375 213.183594 241.191406 211.460938 240.296875 C 197.921875 233.65625 128.246094 197.957031 85.328125 150.1875 C 38.195312 97.753906 29.253906 66.90625 29.128906 66.585938 L 26.125 55.539062 L 22.675781 66.460938 C 22.164062 67.992188 11.117188 104.011719 35.066406 142.585938 C 57.417969 178.667969 132.269531 236.785156 209.160156 247.644531 Z M 198.8125 259.203125 C 200.792969 259.136719 202.390625 257.667969 202.582031 255.691406 C 202.773438 253.710938 201.433594 251.921875 199.515625 251.539062 C 182.335938 248.089844 94.523438 228.292969 47.902344 173.816406 L 39.664062 164.171875 L 42.027344 176.691406 C 42.539062 179.371094 47.074219 202.9375 53.777344 211.304688 C 60.421875 219.671875 120.007812 259.265625 194.597656 259.265625 C 196.003906 259.265625 197.410156 259.265625 198.8125 259.203125 Z M 209.351562 267.25 C 208.90625 265.332031 207.179688 264.121094 205.265625 264.3125 C 190.449219 265.78125 139.421875 269.039062 105.382812 248.984375 L 98.675781 245.023438 L 100.398438 252.6875 C 100.527344 253.328125 104.296875 269.230469 121.859375 278.488281 C 130.03125 282.832031 139.738281 284.941406 150.851562 284.941406 C 166.753906 284.941406 185.53125 280.53125 207.054688 271.785156 C 208.839844 271.082031 209.863281 269.164062 209.351562 267.25 Z M 218.421875 280.851562 C 219.570312 279.449219 219.632812 277.46875 218.546875 276 C 217.460938 274.53125 215.546875 274.019531 213.886719 274.785156 C 179.589844 290.433594 159.855469 291.835938 159.601562 291.835938 L 153.726562 292.15625 L 156.917969 297.074219 C 161.519531 304.097656 167.457031 307.929688 174.546875 308.378906 C 174.992188 308.378906 175.441406 308.441406 175.886719 308.441406 C 193.707031 308.441406 212.863281 287.429688 218.421875 280.851562 Z M 219.953125 359.980469 L 237.261719 363.171875 C 237.261719 363.171875 242.304688 352.0625 245.882812 337.246094 C 249.457031 352.0625 254.503906 363.171875 254.503906 363.171875 L 271.8125 359.980469 C 262.105469 346.441406 251.183594 323.960938 245.882812 312.464844 C 240.519531 323.960938 229.660156 346.441406 219.953125 359.980469 Z M 219.953125 359.980469 "/>
<path style=" stroke:none;fill-rule:nonzero;fill:rgb(0%,0%,0%);fill-opacity:1;" d="M 255.996094 174.390625 C 255.808594 175.652344 254.734375 176.601562 253.46875 176.601562 L 253.152344 176.601562 C 252.332031 176.601562 251.574219 176.222656 251.066406 175.527344 C 250.5625 174.832031 250.4375 174.011719 250.6875 173.1875 L 253.722656 164.089844 L 245.886719 149.746094 L 238.113281 164.089844 L 241.148438 173.1875 C 241.398438 173.949219 241.273438 174.832031 240.769531 175.527344 C 240.261719 176.222656 239.503906 176.601562 238.683594 176.601562 L 238.304688 176.601562 C 237.039062 176.601562 235.964844 175.652344 235.777344 174.390625 L 234.324219 164.785156 L 220.167969 149.746094 L 231.796875 186.207031 L 260.039062 186.207031 L 271.667969 149.746094 L 257.449219 164.785156 Z M 255.996094 174.390625 "/>
<path style=" stroke:none;fill-rule:nonzero;fill:rgb(0%,0%,0%);fill-opacity:1;" d="M 235.457031 77.667969 C 234.457031 76.871094 233.550781 75.964844 232.75 74.960938 L 227.679688 74.117188 L 219.058594 91.359375 L 236.300781 82.738281 Z M 217.546875 72.429688 C 218.210938 74.808594 219.175781 77.097656 220.414062 79.238281 L 223.335938 73.390625 Z M 231.179688 90.003906 C 233.320312 91.246094 235.613281 92.207031 237.992188 92.871094 L 237.023438 87.082031 Z M 251.671875 80.300781 C 249.875 80.960938 247.941406 81.335938 245.917969 81.335938 C 243.894531 81.335938 241.960938 80.960938 240.164062 80.300781 L 245.917969 114.828125 Z M 264.152344 74.117188 L 259.082031 74.960938 C 258.285156 75.964844 257.378906 76.871094 256.375 77.667969 L 255.53125 82.738281 L 272.773438 91.359375 Z M 229.082031 64.5 C 229.082031 62.476562 229.460938 60.546875 230.117188 58.746094 L 195.589844 64.5 L 230.117188 70.257812 C 229.460938 68.457031 229.082031 66.527344 229.082031 64.5 Z M 254.808594 87.082031 L 253.84375 92.875 C 256.222656 92.207031 258.515625 91.246094 260.65625 90.007812 Z M 268.5 73.390625 L 271.421875 79.238281 C 272.660156 77.097656 273.625 74.804688 274.289062 72.429688 Z M 262.753906 64.5 C 262.753906 66.527344 262.375 68.457031 261.71875 70.257812 L 296.246094 64.5 L 261.71875 58.746094 C 262.375 60.546875 262.753906 62.476562 262.753906 64.5 Z M 245.917969 51.875 C 238.953125 51.875 233.292969 57.539062 233.292969 64.5 C 233.292969 71.464844 238.953125 77.128906 245.917969 77.128906 C 252.882812 77.128906 258.542969 71.464844 258.542969 64.5 C 258.542969 57.539062 252.882812 51.875 245.917969 51.875 Z M 274.289062 56.574219 C 273.625 54.195312 272.660156 51.902344 271.425781 49.761719 L 268.5 55.609375 Z M 256.378906 51.335938 C 257.378906 52.132812 258.285156 53.039062 259.085938 54.042969 L 264.15625 54.886719 L 272.777344 37.644531 L 255.535156 46.265625 Z M 223.335938 55.609375 L 220.414062 49.761719 C 219.175781 51.90625 218.210938 54.195312 217.546875 56.574219 Z M 260.65625 38.996094 C 258.515625 37.757812 256.222656 36.796875 253.84375 36.132812 L 254.8125 41.921875 Z M 227.683594 54.886719 L 232.753906 54.042969 C 233.550781 53.039062 234.457031 52.132812 235.460938 51.335938 L 236.304688 46.265625 L 219.0625 37.640625 Z M 240.164062 48.703125 C 241.960938 48.042969 243.894531 47.667969 245.917969 47.667969 C 247.941406 47.667969 249.875 48.042969 251.671875 48.703125 L 245.917969 14.171875 Z M 237.027344 41.921875 L 237.992188 36.128906 C 235.613281 36.792969 233.324219 37.757812 231.179688 38.996094 Z M 237.027344 41.921875 "/>
</g>
</svg>
